<?xml version="1.0" standalone="no"?>
<!DOCTYPE svg PUBLIC "-//W3C//DTD SVG 20010904//EN"
 "http://www.w3.org/TR/2001/REC-SVG-20010904/DTD/svg10.dtd">
<svg version="1.0" xmlns="http://www.w3.org/2000/svg"
 width="1024.000000pt" height="1024.000000pt" viewBox="0 0 1024.000000 1024.000000"
 preserveAspectRatio="xMidYMid meet">

<g transform="translate(0.000000,1024.000000) scale(0.100000,-0.100000)"
fill="#000000" stroke="none">
<path d="M5910 5125 l0 -1025 75 0 c41 0 75 3 75 8 0 4 7 61 15 127 8 66 15
131 15 145 0 20 7 13 33 -35 82 -153 219 -248 378 -265 284 -29 511 94 635
345 61 124 84 233 84 407 0 141 -13 230 -49 333 -61 172 -212 318 -375 361
-67 18 -227 18 -295 -1 -125 -33 -232 -111 -307 -222 -21 -32 -41 -61 -44 -65
-3 -4 -4 200 -2 452 l3 460 -120 0 -121 0 0 -1025z m742 214 c142 -30 233
-122 290 -294 20 -62 23 -89 23 -230 -1 -149 -3 -166 -28 -239 -70 -200 -202
-300 -394 -298 -184 2 -320 100 -379 272 -26 75 -26 333 -1 429 52 193 165
319 322 357 65 16 102 17 167 3z"/>
<path d="M2970 5890 c-114 -14 -190 -53 -190 -97 0 -25 62 -51 136 -58 41 -4
71 -11 69 -16 -13 -20 -150 -102 -226 -135 -46 -20 -218 -80 -382 -135 -163
-54 -328 -114 -366 -134 -63 -33 -120 -79 -110 -89 2 -2 42 -23 89 -46 47 -23
138 -71 203 -107 l118 -64 587 309 c323 170 655 344 739 386 84 42 155 80 157
85 3 5 -38 14 -92 21 -53 6 -225 29 -381 51 -156 21 -287 38 -290 38 -3 -1
-31 -5 -61 -9z"/>
<path d="M2465 5793 c-95 -13 -244 -75 -670 -282 l-229 -112 44 -25 c25 -14
62 -35 83 -46 l38 -19 44 40 c68 63 144 94 447 186 288 88 445 152 517 213 54
45 38 52 -112 51 -73 -1 -145 -4 -162 -6z"/>
<path d="M8005 5540 c-232 -32 -418 -187 -502 -417 -44 -121 -56 -198 -56
-353 0 -237 50 -375 183 -511 86 -88 181 -140 302 -165 91 -20 313 -22 423 -5
106 16 236 52 241 66 3 6 -4 47 -14 90 -22 92 -11 88 -152 55 -180 -43 -403
-30 -522 31 -61 31 -144 114 -173 173 -25 52 -55 168 -55 218 l0 28 493 2 492
3 3 122 c8 346 -133 580 -389 646 -73 19 -201 27 -274 17z m191 -195 c135 -40
216 -161 231 -342 l6 -73 -373 0 -372 0 7 48 c11 73 61 192 102 243 43 53 113
104 169 124 52 19 168 19 230 0z"/>
<path d="M3493 5452 l-143 -77 43 -11 c67 -17 104 -41 136 -88 62 -90 64 -109
69 -668 l4 -508 179 0 179 0 0 509 c0 279 -4 530 -9 557 -16 81 -49 160 -95
222 -50 67 -154 142 -195 141 -14 0 -90 -35 -168 -77z"/>
<path d="M4323 5003 c4 -563 4 -564 64 -690 93 -199 331 -288 575 -217 110 33
221 123 285 231 13 24 28 43 33 43 4 0 12 -60 16 -132 l9 -133 103 -3 102 -3
0 711 0 710 -124 0 -125 0 -3 -452 c-4 -428 -5 -456 -25 -515 -60 -179 -189
-275 -368 -276 -70 -1 -87 3 -134 28 -75 41 -120 105 -149 215 -12 44 -16 150
-19 528 l-4 472 -120 0 -120 0 4 -517z"/>
<path d="M2905 5124 c-71 -41 -165 -94 -207 -117 l-78 -42 0 -432 0 -433 193
0 192 0 0 458 c1 465 2 487 41 620 3 12 2 22 -2 21 -5 0 -67 -34 -139 -75z"/>
<path d="M5492 3775 c2 -41 1 -75 -2 -75 -3 0 -14 7 -24 15 -11 8 -39 15 -62
15 -105 0 -150 -155 -68 -237 38 -39 87 -44 127 -13 25 20 25 20 30 -1 5 -19
39 -25 38 -6 -1 4 -1 90 -1 192 0 181 0 185 -21 185 -19 0 -20 -5 -17 -75z
m-23 -111 c33 -42 29 -108 -9 -145 -23 -23 -35 -29 -52 -24 -62 19 -87 102
-49 163 27 43 79 45 110 6z"/>
<path d="M7650 3775 l0 -77 -25 16 c-30 20 -94 21 -121 1 -69 -48 -69 -182 0
-237 26 -22 85 -23 112 -3 25 19 34 19 34 0 0 -8 9 -15 20 -15 20 0 20 5 18
192 -3 174 -5 193 -20 196 -16 3 -18 -6 -18 -73z m-33 -99 c25 -21 28 -31 28
-81 0 -50 -3 -60 -28 -81 -36 -31 -52 -30 -88 5 -58 59 -27 176 48 180 7 1 25
-10 40 -23z"/>
<path d="M4147 3822 c-17 -19 -23 -62 -9 -62 11 0 62 67 55 74 -11 11 -30 6
-46 -12z"/>
<path d="M2615 3817 c-3 -7 -4 -89 -3 -182 l3 -170 98 -3 c92 -3 97 -2 97 18
0 18 -6 20 -75 20 l-75 0 0 65 0 65 71 0 c62 0 70 2 67 18 -3 14 -16 18 -71
20 l-67 3 0 59 0 60 76 0 c63 0 75 3 72 15 -4 22 -186 33 -193 12z"/>
<path d="M3913 3823 c-7 -3 -13 -13 -13 -24 0 -14 7 -19 25 -19 15 0 25 6 25
14 0 18 -22 35 -37 29z"/>
<path d="M4523 3823 c-21 -8 -15 -43 6 -43 11 0 23 5 27 11 8 14 -17 38 -33
32z"/>
<path d="M6124 3819 c-3 -6 -32 -87 -64 -181 l-58 -169 26 3 c23 3 29 10 41
56 l14 52 67 0 67 0 17 -60 c15 -52 20 -60 42 -60 13 0 24 3 24 6 0 15 -112
340 -122 351 -13 16 -44 17 -54 2z m55 -121 c29 -87 29 -88 -29 -88 -27 0 -50
4 -50 8 0 11 37 119 45 132 10 16 12 13 34 -52z"/>
<path d="M7783 3805 c-7 -19 13 -36 37 -32 8 1 15 11 15 22 0 26 -42 34 -52
10z"/>
<path d="M3130 3751 c0 -22 -5 -30 -20 -33 -29 -4 -30 -22 -2 -26 21 -3 22 -8
22 -90 0 -109 12 -136 63 -140 42 -4 52 17 15 33 -20 9 -24 21 -32 87 -11 95
-6 112 34 106 24 -4 30 -1 30 13 0 13 -9 19 -32 21 -28 2 -34 8 -36 31 -5 40
-42 38 -42 -2z"/>
<path d="M2905 3706 c-45 -45 -27 -98 44 -131 30 -13 41 -24 41 -40 0 -35 -24
-48 -71 -41 -35 6 -40 4 -37 -11 2 -14 15 -19 56 -21 44 -3 55 1 77 22 46 46
30 93 -45 131 -33 17 -50 32 -50 44 0 30 25 44 66 37 31 -6 35 -5 32 11 -2 13
-14 19 -45 21 -35 3 -48 -2 -68 -22z"/>
<path d="M3326 3714 c-22 -21 -20 -38 2 -29 42 19 80 17 101 -4 38 -38 20 -61
-51 -61 -15 0 -38 -10 -52 -22 -60 -53 -32 -138 44 -138 21 0 43 6 50 15 7 8
16 15 21 15 5 0 9 -7 9 -15 0 -8 9 -15 20 -15 19 0 20 7 20 110 0 104 -1 112
-25 135 -19 20 -34 25 -74 25 -32 0 -55 -6 -65 -16z m122 -151 c5 -53 -62 -95
-96 -61 -36 36 13 101 73 95 15 -1 21 -10 23 -34z"/>
<path d="M3629 3715 c-28 -15 -59 -78 -59 -120 0 -95 88 -162 152 -115 36 26
42 22 34 -25 -10 -50 -43 -69 -106 -62 -44 5 -50 4 -50 -12 0 -23 19 -31 71
-31 51 0 95 23 114 60 21 41 22 320 1 320 -8 0 -17 -7 -20 -16 -5 -14 -8 -14
-28 0 -28 20 -74 20 -109 1z m108 -47 c18 -16 23 -32 23 -68 0 -60 -28 -100
-71 -100 -45 0 -69 31 -69 89 0 87 63 130 117 79z"/>
<path d="M3900 3595 c0 -128 1 -135 20 -135 19 0 20 7 20 135 0 128 -1 135
-20 135 -19 0 -20 -7 -20 -135z"/>
<path d="M4063 3723 c-7 -2 -13 -10 -13 -18 0 -9 12 -11 43 -8 46 5 74 -9 79
-41 2 -16 -6 -22 -45 -30 -64 -15 -97 -47 -97 -95 0 -65 54 -90 120 -56 24 13
29 13 34 0 3 -9 12 -12 21 -8 14 5 16 22 13 115 -3 101 -5 111 -27 129 -22 18
-96 25 -128 12z m117 -142 c0 -33 -18 -69 -40 -81 -17 -9 -26 -8 -46 5 -31 20
-31 48 2 74 35 28 84 28 84 2z"/>
<path d="M4320 3595 c0 -128 1 -135 20 -135 18 0 20 7 20 83 0 97 13 128 58
142 21 6 32 15 30 25 -5 23 -42 23 -63 0 -23 -25 -35 -26 -35 0 0 11 -7 20
-15 20 -13 0 -15 -22 -15 -135z"/>
<path d="M4510 3595 c0 -128 1 -135 20 -135 19 0 20 7 20 135 0 128 -1 135
-20 135 -19 0 -20 -7 -20 -135z"/>
<path d="M4698 3714 c-75 -40 -78 -188 -6 -238 29 -20 90 -20 129 0 35 18 59
67 59 119 0 106 -94 167 -182 119z m111 -46 c65 -69 8 -199 -73 -168 -52 19
-72 91 -41 150 24 46 80 55 114 18z"/>
<path d="M4975 3705 c-14 -13 -25 -34 -25 -45 0 -25 41 -67 88 -92 62 -33 27
-86 -49 -74 -45 7 -62 -10 -24 -24 72 -27 145 5 145 63 0 43 -10 55 -66 86
-55 30 -62 42 -38 65 13 13 26 16 55 11 31 -5 39 -4 39 8 0 34 -92 36 -125 2z"/>
<path d="M5678 3714 c-55 -29 -76 -128 -43 -199 19 -39 51 -55 110 -55 52 0
75 8 75 25 0 9 -11 12 -40 8 -50 -7 -94 11 -109 43 -23 51 -18 54 80 54 l92 0
-6 43 c-11 80 -89 120 -159 81z m97 -39 c44 -43 34 -55 -45 -55 -38 0 -70 2
-70 5 0 18 32 64 47 68 35 9 44 7 68 -18z"/>
<path d="M6369 3728 c-3 -16 -5 -286 -2 -325 4 -44 8 -53 24 -53 17 0 19 8 19
70 0 70 7 83 30 55 21 -25 96 -20 125 9 46 46 56 147 20 203 -30 46 -98 56
-147 22 l-29 -21 -6 21 c-3 11 -12 21 -19 21 -8 0 -14 -1 -15 -2z m170 -64
c23 -29 29 -101 10 -135 -25 -48 -105 -44 -128 7 -32 71 2 154 64 154 24 0 39
-7 54 -26z"/>
<path d="M6688 3723 c-2 -5 -2 -65 0 -135 3 -119 5 -128 23 -128 17 0 19 8 19
88 0 80 2 91 23 110 13 12 30 22 38 22 22 0 28 8 22 31 -7 25 -35 24 -58 -1
-10 -11 -22 -20 -27 -20 -4 0 -8 9 -8 20 0 19 -25 29 -32 13z"/>
<path d="M6918 3714 c-39 -20 -58 -64 -58 -128 0 -47 4 -61 28 -86 17 -20 40
-33 64 -37 51 -8 108 4 108 23 0 12 -9 13 -50 8 -46 -6 -51 -4 -80 24 -16 17
-30 40 -30 51 0 20 6 21 90 21 l90 0 0 41 c0 81 -86 125 -162 83z m102 -34
c11 -11 20 -29 20 -40 0 -18 -7 -20 -70 -20 -38 0 -70 2 -70 5 0 14 31 64 42
68 28 11 59 6 78 -13z"/>
<path d="M7160 3601 c0 -120 1 -129 20 -134 19 -5 20 0 20 74 0 108 22 149 79
149 37 0 50 -31 53 -130 3 -87 5 -95 23 -95 18 0 20 8 23 65 5 92 -5 144 -33
174 -30 32 -76 34 -113 5 l-26 -20 -8 20 c-4 12 -14 21 -23 21 -13 0 -15 -20
-15 -129z"/>
<path d="M7790 3595 c0 -128 1 -135 20 -135 19 0 20 7 20 135 0 128 -1 135
-20 135 -19 0 -20 -7 -20 -135z"/>
<path d="M7920 3710 c0 -17 8 -19 71 -22 l71 -3 -77 -99 c-41 -55 -74 -104
-72 -110 2 -7 43 -12 105 -14 97 -3 102 -2 102 18 0 18 -6 20 -70 20 -38 0
-70 3 -70 7 0 3 32 48 70 98 39 50 70 99 70 108 0 15 -13 17 -100 17 -93 0
-100 -1 -100 -20z"/>
<path d="M8222 3714 c-75 -52 -66 -214 14 -244 50 -20 134 -10 134 15 0 9 -14
11 -50 7 -44 -4 -52 -2 -80 26 -16 17 -30 40 -30 51 0 20 6 21 90 21 l90 0 0
41 c0 58 -42 99 -102 99 -24 0 -54 -7 -66 -16z m101 -31 c8 -10 17 -27 19 -38
3 -18 -3 -20 -59 -23 -58 -3 -63 -1 -63 18 0 49 71 78 103 43z"/>
<path d="M8486 3709 c-25 -20 -33 -50 -20 -84 4 -9 28 -27 55 -41 39 -19 49
-30 49 -49 0 -32 -32 -49 -81 -41 -42 7 -52 -6 -20 -24 37 -19 100 -12 126 15
46 45 29 93 -46 129 -73 35 -58 95 20 80 24 -5 31 -3 31 9 0 33 -75 37 -114 6z"/>
</g>
</svg>
